# xmcd CD database file
#
# Track frame offsets:
#	150
#	36992
#	59792
#	86730
#	105582
#	134463
#	162184
#	190861
#	219820
#	244073
#
# Disc length: 3506 seconds
#
# Revision: 0
# Processed by: cddbd v1.5.2PL0 Copyright (c) Steve Scherf et al.
# Submitted via: CDex 1.70beta2
#
DISCID=8b0db00a
DTITLE=Nils Wogram Nostalgia - Nature
DYEAR=2014
DGENRE=Jazz
TTITLE0=Solitude
TTITLE1=Hofstetten
TTITLE2=The Trail
TTITLE3=Birds
TTITLE4=Uncultivated Land
TTITLE5=As Wave follows Wave
TTITLE6=Sanctuary
TTITLE7=Quiet River
TTITLE8=Village for Sale
TTITLE9=Dipper
EXTD=YEAR: 2014
EXTT0=
EXTT1=
EXTT2=
EXTT3=
EXTT4=
EXTT5=
EXTT6=
EXTT7=
EXTT8=
EXTT9=
PLAYORDER=
